<mxfile host="app.diagrams.net" modified="2023-11-17T00:45:49.993Z" agent="Mozilla/5.0 (Windows NT 10.0; Win64; x64) AppleWebKit/537.36 (KHTML, like Gecko) Chrome/119.0.0.0 Safari/537.36" etag="PpqjJLjka7G7ujFa8P7u" version="22.1.2" type="onedrive">
  <diagram name="Trang-1" id="k1O30uI39cCRn_recdep">
    <mxGraphModel dx="2075" dy="636" grid="1" gridSize="10" guides="1" tooltips="1" connect="1" arrows="1" fold="1" page="1" pageScale="1" pageWidth="827" pageHeight="1169" math="0" shadow="0">
      <root>
        <mxCell id="0" />
        <mxCell id="1" parent="0" />
        <mxCell id="YCS9mpfpworKlvHF8gT9-1" value="start" style="ellipse;whiteSpace=wrap;html=1;" vertex="1" parent="1">
          <mxGeometry x="320" y="460" width="120" height="80" as="geometry" />
        </mxCell>
        <mxCell id="YCS9mpfpworKlvHF8gT9-2" value="" style="edgeStyle=orthogonalEdgeStyle;rounded=0;orthogonalLoop=1;jettySize=auto;html=1;" edge="1" parent="1" source="YCS9mpfpworKlvHF8gT9-3" target="YCS9mpfpworKlvHF8gT9-6">
          <mxGeometry relative="1" as="geometry" />
        </mxCell>
        <mxCell id="YCS9mpfpworKlvHF8gT9-3" value="arr[100]&lt;br&gt;currentIndex" style="shape=parallelogram;perimeter=parallelogramPerimeter;whiteSpace=wrap;html=1;fixedSize=1;" vertex="1" parent="1">
          <mxGeometry x="280" y="580" width="170" height="75" as="geometry" />
        </mxCell>
        <mxCell id="YCS9mpfpworKlvHF8gT9-4" style="edgeStyle=orthogonalEdgeStyle;rounded=0;orthogonalLoop=1;jettySize=auto;html=1;entryX=0.583;entryY=-0.017;entryDx=0;entryDy=0;entryPerimeter=0;" edge="1" parent="1" source="YCS9mpfpworKlvHF8gT9-1" target="YCS9mpfpworKlvHF8gT9-3">
          <mxGeometry relative="1" as="geometry" />
        </mxCell>
        <mxCell id="YCS9mpfpworKlvHF8gT9-5" style="edgeStyle=orthogonalEdgeStyle;rounded=0;orthogonalLoop=1;jettySize=auto;html=1;entryX=0.5;entryY=0;entryDx=0;entryDy=0;" edge="1" parent="1" source="YCS9mpfpworKlvHF8gT9-6" target="YCS9mpfpworKlvHF8gT9-8">
          <mxGeometry relative="1" as="geometry" />
        </mxCell>
        <mxCell id="YCS9mpfpworKlvHF8gT9-6" value="sum=0,max,min,findNumber,count=0" style="shape=parallelogram;perimeter=parallelogramPerimeter;whiteSpace=wrap;html=1;fixedSize=1;" vertex="1" parent="1">
          <mxGeometry x="252.5" y="750" width="225" height="107.5" as="geometry" />
        </mxCell>
        <mxCell id="YCS9mpfpworKlvHF8gT9-7" style="edgeStyle=orthogonalEdgeStyle;rounded=0;orthogonalLoop=1;jettySize=auto;html=1;entryX=0.5;entryY=0;entryDx=0;entryDy=0;" edge="1" parent="1" source="YCS9mpfpworKlvHF8gT9-8" target="YCS9mpfpworKlvHF8gT9-10">
          <mxGeometry relative="1" as="geometry" />
        </mxCell>
        <mxCell id="YCS9mpfpworKlvHF8gT9-8" value="&#xa;&lt;div style=&quot;color: rgb(212, 212, 212); background-color: rgb(30, 30, 30); font-family: Consolas, &amp;quot;Courier New&amp;quot;, monospace; font-weight: normal; font-size: 14px; line-height: 19px;&quot;&gt;&lt;div&gt;&lt;span style=&quot;color: #d4d4d4;&quot;&gt;&amp;nbsp; &amp;nbsp; &lt;/span&gt;&lt;span style=&quot;color: #c8c8c8;&quot;&gt;printf&lt;/span&gt;&lt;span style=&quot;color: #d4d4d4;&quot;&gt;(&lt;/span&gt;&lt;span style=&quot;color: #ce9178;&quot;&gt;&quot;1. Nhập số phần tử cần nhập và giá trị các phần tử\n&quot;&lt;/span&gt;&lt;span style=&quot;color: #d4d4d4;&quot;&gt;);&lt;/span&gt;&lt;/div&gt;&lt;div&gt;&lt;span style=&quot;color: #d4d4d4;&quot;&gt;&amp;nbsp; &amp;nbsp; &amp;nbsp; &amp;nbsp; &lt;/span&gt;&lt;span style=&quot;color: #c8c8c8;&quot;&gt;printf&lt;/span&gt;&lt;span style=&quot;color: #d4d4d4;&quot;&gt;(&lt;/span&gt;&lt;span style=&quot;color: #ce9178;&quot;&gt;&quot;2. In ra giá trị các phần tử đang quản lý\n&quot;&lt;/span&gt;&lt;span style=&quot;color: #d4d4d4;&quot;&gt;);&lt;/span&gt;&lt;/div&gt;&lt;div&gt;&lt;span style=&quot;color: #d4d4d4;&quot;&gt;&amp;nbsp; &amp;nbsp; &amp;nbsp; &amp;nbsp; &lt;/span&gt;&lt;span style=&quot;color: #c8c8c8;&quot;&gt;printf&lt;/span&gt;&lt;span style=&quot;color: #d4d4d4;&quot;&gt;(&lt;/span&gt;&lt;span style=&quot;color: #ce9178;&quot;&gt;&quot;3. In ra giá trị các phần tử chẵn và tính tổng\n&quot;&lt;/span&gt;&lt;span style=&quot;color: #d4d4d4;&quot;&gt;);&lt;/span&gt;&lt;/div&gt;&lt;div&gt;&lt;span style=&quot;color: #d4d4d4;&quot;&gt;&amp;nbsp; &amp;nbsp; &amp;nbsp; &amp;nbsp; &lt;/span&gt;&lt;span style=&quot;color: #c8c8c8;&quot;&gt;printf&lt;/span&gt;&lt;span style=&quot;color: #d4d4d4;&quot;&gt;(&lt;/span&gt;&lt;span style=&quot;color: #ce9178;&quot;&gt;&quot;4. In ra giá trị lớn nhất và nhỏ nhất trong mảng\n&quot;&lt;/span&gt;&lt;span style=&quot;color: #d4d4d4;&quot;&gt;);&lt;/span&gt;&lt;/div&gt;&lt;div&gt;&lt;span style=&quot;color: #d4d4d4;&quot;&gt;&amp;nbsp; &amp;nbsp; &amp;nbsp; &amp;nbsp; &lt;/span&gt;&lt;span style=&quot;color: #c8c8c8;&quot;&gt;printf&lt;/span&gt;&lt;span style=&quot;color: #d4d4d4;&quot;&gt;(&lt;/span&gt;&lt;span style=&quot;color: #ce9178;&quot;&gt;&quot;5. In ra các phần tử là số nguyên tố trong mảng và tính tổng\n&quot;&lt;/span&gt;&lt;span style=&quot;color: #d4d4d4;&quot;&gt;);&lt;/span&gt;&lt;/div&gt;&lt;div&gt;&lt;span style=&quot;color: #d4d4d4;&quot;&gt;&amp;nbsp; &amp;nbsp; &amp;nbsp; &amp;nbsp; &lt;/span&gt;&lt;span style=&quot;color: #c8c8c8;&quot;&gt;printf&lt;/span&gt;&lt;span style=&quot;color: #d4d4d4;&quot;&gt;(&lt;/span&gt;&lt;span style=&quot;color: #ce9178;&quot;&gt;&quot;6. Nhập vào một số và thống kê trong mảng có bao nhiêu phần tử có giá trị như vậy\n&quot;&lt;/span&gt;&lt;span style=&quot;color: #d4d4d4;&quot;&gt;);&lt;/span&gt;&lt;/div&gt;&lt;div&gt;&lt;span style=&quot;color: #d4d4d4;&quot;&gt;&amp;nbsp; &amp;nbsp; &amp;nbsp; &amp;nbsp; &lt;/span&gt;&lt;span style=&quot;color: #c8c8c8;&quot;&gt;printf&lt;/span&gt;&lt;span style=&quot;color: #d4d4d4;&quot;&gt;(&lt;/span&gt;&lt;span style=&quot;color: #ce9178;&quot;&gt;&quot;7. Thêm một phần từ vào vị trí chỉ định\n&quot;&lt;/span&gt;&lt;span style=&quot;color: #d4d4d4;&quot;&gt;);&lt;/span&gt;&lt;/div&gt;&lt;div&gt;&lt;span style=&quot;color: #d4d4d4;&quot;&gt;&amp;nbsp; &amp;nbsp; &amp;nbsp; &amp;nbsp; &lt;/span&gt;&lt;span style=&quot;color: #c8c8c8;&quot;&gt;printf&lt;/span&gt;&lt;span style=&quot;color: #d4d4d4;&quot;&gt;(&lt;/span&gt;&lt;span style=&quot;color: #ce9178;&quot;&gt;&quot;8. Thoát\n&quot;&lt;/span&gt;&lt;span style=&quot;color: #d4d4d4;&quot;&gt;);&lt;/span&gt;&lt;/div&gt;&lt;/div&gt;&#xa;&#xa;" style="shape=parallelogram;perimeter=parallelogramPerimeter;whiteSpace=wrap;html=1;fixedSize=1;" vertex="1" parent="1">
          <mxGeometry x="-45" y="950" width="820" height="180" as="geometry" />
        </mxCell>
        <mxCell id="YCS9mpfpworKlvHF8gT9-9" style="edgeStyle=orthogonalEdgeStyle;rounded=0;orthogonalLoop=1;jettySize=auto;html=1;entryX=0.5;entryY=0;entryDx=0;entryDy=0;" edge="1" parent="1" source="YCS9mpfpworKlvHF8gT9-10" target="YCS9mpfpworKlvHF8gT9-14">
          <mxGeometry relative="1" as="geometry" />
        </mxCell>
        <mxCell id="YCS9mpfpworKlvHF8gT9-10" value="choice" style="shape=parallelogram;perimeter=parallelogramPerimeter;whiteSpace=wrap;html=1;fixedSize=1;" vertex="1" parent="1">
          <mxGeometry x="305" y="1220" width="120" height="60" as="geometry" />
        </mxCell>
        <mxCell id="YCS9mpfpworKlvHF8gT9-11" value="" style="edgeStyle=orthogonalEdgeStyle;rounded=0;orthogonalLoop=1;jettySize=auto;html=1;" edge="1" parent="1" source="YCS9mpfpworKlvHF8gT9-14" target="YCS9mpfpworKlvHF8gT9-16">
          <mxGeometry relative="1" as="geometry" />
        </mxCell>
        <mxCell id="YCS9mpfpworKlvHF8gT9-12" value="" style="edgeStyle=orthogonalEdgeStyle;rounded=0;orthogonalLoop=1;jettySize=auto;html=1;" edge="1" parent="1" source="YCS9mpfpworKlvHF8gT9-14" target="YCS9mpfpworKlvHF8gT9-28">
          <mxGeometry relative="1" as="geometry" />
        </mxCell>
        <mxCell id="YCS9mpfpworKlvHF8gT9-13" value="false" style="edgeLabel;html=1;align=center;verticalAlign=middle;resizable=0;points=[];" vertex="1" connectable="0" parent="YCS9mpfpworKlvHF8gT9-12">
          <mxGeometry x="0.1294" y="-2" relative="1" as="geometry">
            <mxPoint as="offset" />
          </mxGeometry>
        </mxCell>
        <mxCell id="YCS9mpfpworKlvHF8gT9-14" value="choice==1" style="rhombus;whiteSpace=wrap;html=1;" vertex="1" parent="1">
          <mxGeometry x="308.75" y="1420" width="112.5" height="110" as="geometry" />
        </mxCell>
        <mxCell id="YCS9mpfpworKlvHF8gT9-15" value="" style="edgeStyle=orthogonalEdgeStyle;rounded=0;orthogonalLoop=1;jettySize=auto;html=1;" edge="1" parent="1" source="YCS9mpfpworKlvHF8gT9-16" target="YCS9mpfpworKlvHF8gT9-21">
          <mxGeometry relative="1" as="geometry" />
        </mxCell>
        <mxCell id="YCS9mpfpworKlvHF8gT9-16" value="n,i=0" style="shape=parallelogram;perimeter=parallelogramPerimeter;whiteSpace=wrap;html=1;fixedSize=1;" vertex="1" parent="1">
          <mxGeometry x="497.5" y="1445" width="120" height="60" as="geometry" />
        </mxCell>
        <mxCell id="YCS9mpfpworKlvHF8gT9-17" value="" style="edgeStyle=orthogonalEdgeStyle;rounded=0;orthogonalLoop=1;jettySize=auto;html=1;" edge="1" parent="1" source="YCS9mpfpworKlvHF8gT9-21" target="YCS9mpfpworKlvHF8gT9-23">
          <mxGeometry relative="1" as="geometry" />
        </mxCell>
        <mxCell id="YCS9mpfpworKlvHF8gT9-18" value="true" style="edgeLabel;html=1;align=center;verticalAlign=middle;resizable=0;points=[];" vertex="1" connectable="0" parent="YCS9mpfpworKlvHF8gT9-17">
          <mxGeometry x="-0.1909" y="-3" relative="1" as="geometry">
            <mxPoint x="-1" as="offset" />
          </mxGeometry>
        </mxCell>
        <mxCell id="YCS9mpfpworKlvHF8gT9-19" style="edgeStyle=orthogonalEdgeStyle;rounded=0;orthogonalLoop=1;jettySize=auto;html=1;" edge="1" parent="1" source="YCS9mpfpworKlvHF8gT9-21">
          <mxGeometry relative="1" as="geometry">
            <mxPoint x="362.5" y="710" as="targetPoint" />
            <Array as="points">
              <mxPoint x="757" y="1600" />
              <mxPoint x="1390" y="1600" />
              <mxPoint x="1390" y="710" />
            </Array>
          </mxGeometry>
        </mxCell>
        <mxCell id="YCS9mpfpworKlvHF8gT9-20" value="false" style="edgeLabel;html=1;align=center;verticalAlign=middle;resizable=0;points=[];" vertex="1" connectable="0" parent="YCS9mpfpworKlvHF8gT9-19">
          <mxGeometry x="-0.7193" y="-2" relative="1" as="geometry">
            <mxPoint x="1" as="offset" />
          </mxGeometry>
        </mxCell>
        <mxCell id="YCS9mpfpworKlvHF8gT9-21" value="i&amp;lt;n" style="rhombus;whiteSpace=wrap;html=1;" vertex="1" parent="1">
          <mxGeometry x="717.5" y="1435" width="80" height="80" as="geometry" />
        </mxCell>
        <mxCell id="YCS9mpfpworKlvHF8gT9-22" value="" style="edgeStyle=orthogonalEdgeStyle;rounded=0;orthogonalLoop=1;jettySize=auto;html=1;" edge="1" parent="1" source="YCS9mpfpworKlvHF8gT9-23" target="YCS9mpfpworKlvHF8gT9-25">
          <mxGeometry relative="1" as="geometry" />
        </mxCell>
        <mxCell id="YCS9mpfpworKlvHF8gT9-23" value="arr[currentIndex]" style="shape=parallelogram;perimeter=parallelogramPerimeter;whiteSpace=wrap;html=1;fixedSize=1;" vertex="1" parent="1">
          <mxGeometry x="857.5" y="1445" width="152.5" height="65" as="geometry" />
        </mxCell>
        <mxCell id="YCS9mpfpworKlvHF8gT9-24" style="edgeStyle=orthogonalEdgeStyle;rounded=0;orthogonalLoop=1;jettySize=auto;html=1;" edge="1" parent="1" source="YCS9mpfpworKlvHF8gT9-25">
          <mxGeometry relative="1" as="geometry">
            <mxPoint x="660" y="1475" as="targetPoint" />
            <Array as="points">
              <mxPoint x="1118" y="1350" />
              <mxPoint x="660" y="1350" />
            </Array>
          </mxGeometry>
        </mxCell>
        <mxCell id="YCS9mpfpworKlvHF8gT9-25" value="i++&lt;br&gt;currentIndex++" style="whiteSpace=wrap;html=1;" vertex="1" parent="1">
          <mxGeometry x="1057.5" y="1445" width="120" height="60" as="geometry" />
        </mxCell>
        <mxCell id="YCS9mpfpworKlvHF8gT9-26" value="" style="edgeStyle=orthogonalEdgeStyle;rounded=0;orthogonalLoop=1;jettySize=auto;html=1;" edge="1" parent="1" source="YCS9mpfpworKlvHF8gT9-28" target="YCS9mpfpworKlvHF8gT9-41">
          <mxGeometry relative="1" as="geometry" />
        </mxCell>
        <mxCell id="YCS9mpfpworKlvHF8gT9-27" value="false" style="edgeLabel;html=1;align=center;verticalAlign=middle;resizable=0;points=[];" vertex="1" connectable="0" parent="YCS9mpfpworKlvHF8gT9-26">
          <mxGeometry x="-0.0435" y="4" relative="1" as="geometry">
            <mxPoint as="offset" />
          </mxGeometry>
        </mxCell>
        <mxCell id="YCS9mpfpworKlvHF8gT9-28" value="choice==2" style="rhombus;whiteSpace=wrap;html=1;" vertex="1" parent="1">
          <mxGeometry x="308.75" y="1700" width="112.5" height="110" as="geometry" />
        </mxCell>
        <mxCell id="YCS9mpfpworKlvHF8gT9-29" value="" style="edgeStyle=orthogonalEdgeStyle;rounded=0;orthogonalLoop=1;jettySize=auto;html=1;exitX=1;exitY=0.5;exitDx=0;exitDy=0;" edge="1" parent="1" source="YCS9mpfpworKlvHF8gT9-28" target="YCS9mpfpworKlvHF8gT9-34">
          <mxGeometry relative="1" as="geometry">
            <mxPoint x="630" y="1744.9099999999999" as="sourcePoint" />
          </mxGeometry>
        </mxCell>
        <mxCell id="YCS9mpfpworKlvHF8gT9-30" value="" style="edgeStyle=orthogonalEdgeStyle;rounded=0;orthogonalLoop=1;jettySize=auto;html=1;" edge="1" parent="1" source="YCS9mpfpworKlvHF8gT9-34" target="YCS9mpfpworKlvHF8gT9-36">
          <mxGeometry relative="1" as="geometry" />
        </mxCell>
        <mxCell id="YCS9mpfpworKlvHF8gT9-31" value="true" style="edgeLabel;html=1;align=center;verticalAlign=middle;resizable=0;points=[];" vertex="1" connectable="0" parent="YCS9mpfpworKlvHF8gT9-30">
          <mxGeometry x="-0.2948" y="-5" relative="1" as="geometry">
            <mxPoint x="-1" as="offset" />
          </mxGeometry>
        </mxCell>
        <mxCell id="YCS9mpfpworKlvHF8gT9-32" style="edgeStyle=orthogonalEdgeStyle;rounded=0;orthogonalLoop=1;jettySize=auto;html=1;" edge="1" parent="1" source="YCS9mpfpworKlvHF8gT9-34">
          <mxGeometry relative="1" as="geometry">
            <mxPoint x="1390" y="1500" as="targetPoint" />
            <Array as="points">
              <mxPoint x="637" y="1880" />
              <mxPoint x="1390" y="1880" />
            </Array>
          </mxGeometry>
        </mxCell>
        <mxCell id="YCS9mpfpworKlvHF8gT9-33" value="false" style="edgeLabel;html=1;align=center;verticalAlign=middle;resizable=0;points=[];" vertex="1" connectable="0" parent="YCS9mpfpworKlvHF8gT9-32">
          <mxGeometry x="-0.2462" y="2" relative="1" as="geometry">
            <mxPoint x="1" as="offset" />
          </mxGeometry>
        </mxCell>
        <mxCell id="YCS9mpfpworKlvHF8gT9-34" value="i&amp;lt;currentIndex" style="rhombus;whiteSpace=wrap;html=1;" vertex="1" parent="1">
          <mxGeometry x="597.5" y="1715" width="80" height="80" as="geometry" />
        </mxCell>
        <mxCell id="YCS9mpfpworKlvHF8gT9-35" value="" style="edgeStyle=orthogonalEdgeStyle;rounded=0;orthogonalLoop=1;jettySize=auto;html=1;" edge="1" parent="1" source="YCS9mpfpworKlvHF8gT9-36" target="YCS9mpfpworKlvHF8gT9-38">
          <mxGeometry relative="1" as="geometry" />
        </mxCell>
        <mxCell id="YCS9mpfpworKlvHF8gT9-36" value="arr[i]" style="shape=parallelogram;perimeter=parallelogramPerimeter;whiteSpace=wrap;html=1;fixedSize=1;" vertex="1" parent="1">
          <mxGeometry x="737.5" y="1725" width="120" height="60" as="geometry" />
        </mxCell>
        <mxCell id="YCS9mpfpworKlvHF8gT9-37" style="edgeStyle=orthogonalEdgeStyle;rounded=0;orthogonalLoop=1;jettySize=auto;html=1;" edge="1" parent="1" source="YCS9mpfpworKlvHF8gT9-38">
          <mxGeometry relative="1" as="geometry">
            <mxPoint x="540" y="1755" as="targetPoint" />
            <Array as="points">
              <mxPoint x="998" y="1630" />
              <mxPoint x="540" y="1630" />
            </Array>
          </mxGeometry>
        </mxCell>
        <mxCell id="YCS9mpfpworKlvHF8gT9-38" value="i++" style="whiteSpace=wrap;html=1;" vertex="1" parent="1">
          <mxGeometry x="937.5" y="1725" width="120" height="60" as="geometry" />
        </mxCell>
        <mxCell id="YCS9mpfpworKlvHF8gT9-39" value="" style="edgeStyle=orthogonalEdgeStyle;rounded=0;orthogonalLoop=1;jettySize=auto;html=1;" edge="1" parent="1" source="YCS9mpfpworKlvHF8gT9-41" target="YCS9mpfpworKlvHF8gT9-60">
          <mxGeometry relative="1" as="geometry" />
        </mxCell>
        <mxCell id="YCS9mpfpworKlvHF8gT9-40" value="false" style="edgeLabel;html=1;align=center;verticalAlign=middle;resizable=0;points=[];" vertex="1" connectable="0" parent="YCS9mpfpworKlvHF8gT9-39">
          <mxGeometry x="-0.2893" y="4" relative="1" as="geometry">
            <mxPoint y="-1" as="offset" />
          </mxGeometry>
        </mxCell>
        <mxCell id="YCS9mpfpworKlvHF8gT9-41" value="choice==3" style="rhombus;whiteSpace=wrap;html=1;" vertex="1" parent="1">
          <mxGeometry x="308.75" y="2014.91" width="112.5" height="110" as="geometry" />
        </mxCell>
        <mxCell id="YCS9mpfpworKlvHF8gT9-42" value="" style="edgeStyle=orthogonalEdgeStyle;rounded=0;orthogonalLoop=1;jettySize=auto;html=1;exitX=1;exitY=0.5;exitDx=0;exitDy=0;" edge="1" parent="1" source="YCS9mpfpworKlvHF8gT9-41" target="YCS9mpfpworKlvHF8gT9-47">
          <mxGeometry relative="1" as="geometry">
            <mxPoint x="671" y="2054.91" as="sourcePoint" />
          </mxGeometry>
        </mxCell>
        <mxCell id="YCS9mpfpworKlvHF8gT9-43" value="" style="edgeStyle=orthogonalEdgeStyle;rounded=0;orthogonalLoop=1;jettySize=auto;html=1;entryX=0;entryY=0.5;entryDx=0;entryDy=0;" edge="1" parent="1" source="YCS9mpfpworKlvHF8gT9-47" target="YCS9mpfpworKlvHF8gT9-54">
          <mxGeometry relative="1" as="geometry">
            <mxPoint x="657.47" y="2065" as="targetPoint" />
          </mxGeometry>
        </mxCell>
        <mxCell id="YCS9mpfpworKlvHF8gT9-44" value="true" style="edgeLabel;html=1;align=center;verticalAlign=middle;resizable=0;points=[];" vertex="1" connectable="0" parent="YCS9mpfpworKlvHF8gT9-43">
          <mxGeometry x="-0.1917" y="3" relative="1" as="geometry">
            <mxPoint as="offset" />
          </mxGeometry>
        </mxCell>
        <mxCell id="YCS9mpfpworKlvHF8gT9-45" style="edgeStyle=orthogonalEdgeStyle;rounded=0;orthogonalLoop=1;jettySize=auto;html=1;" edge="1" parent="1" source="YCS9mpfpworKlvHF8gT9-47">
          <mxGeometry relative="1" as="geometry">
            <mxPoint x="1390" y="1850" as="targetPoint" />
            <Array as="points">
              <mxPoint x="568" y="2200" />
            </Array>
          </mxGeometry>
        </mxCell>
        <mxCell id="YCS9mpfpworKlvHF8gT9-46" value="false" style="edgeLabel;html=1;align=center;verticalAlign=middle;resizable=0;points=[];" vertex="1" connectable="0" parent="YCS9mpfpworKlvHF8gT9-45">
          <mxGeometry x="-0.1814" y="-4" relative="1" as="geometry">
            <mxPoint as="offset" />
          </mxGeometry>
        </mxCell>
        <mxCell id="YCS9mpfpworKlvHF8gT9-47" value="i&amp;lt;currentIndex" style="rhombus;whiteSpace=wrap;html=1;" vertex="1" parent="1">
          <mxGeometry x="525.02" y="2024.9999999999998" width="80" height="80" as="geometry" />
        </mxCell>
        <mxCell id="YCS9mpfpworKlvHF8gT9-48" value="" style="edgeStyle=orthogonalEdgeStyle;rounded=0;orthogonalLoop=1;jettySize=auto;html=1;" edge="1" parent="1" source="YCS9mpfpworKlvHF8gT9-49" target="YCS9mpfpworKlvHF8gT9-51">
          <mxGeometry relative="1" as="geometry" />
        </mxCell>
        <mxCell id="YCS9mpfpworKlvHF8gT9-49" value="arr[i]" style="shape=parallelogram;perimeter=parallelogramPerimeter;whiteSpace=wrap;html=1;fixedSize=1;" vertex="1" parent="1">
          <mxGeometry x="910" y="2037.41" width="120" height="55" as="geometry" />
        </mxCell>
        <mxCell id="YCS9mpfpworKlvHF8gT9-50" style="edgeStyle=orthogonalEdgeStyle;rounded=0;orthogonalLoop=1;jettySize=auto;html=1;" edge="1" parent="1" source="YCS9mpfpworKlvHF8gT9-51">
          <mxGeometry relative="1" as="geometry">
            <mxPoint x="467.52000000000004" y="2065" as="targetPoint" />
            <Array as="points">
              <mxPoint x="1190" y="1940" />
              <mxPoint x="468" y="1940" />
            </Array>
          </mxGeometry>
        </mxCell>
        <mxCell id="YCS9mpfpworKlvHF8gT9-51" value="i++&lt;br&gt;sum+=arr[i]" style="whiteSpace=wrap;html=1;" vertex="1" parent="1">
          <mxGeometry x="1121" y="2034.9999999999998" width="120" height="60" as="geometry" />
        </mxCell>
        <mxCell id="YCS9mpfpworKlvHF8gT9-52" style="edgeStyle=orthogonalEdgeStyle;rounded=0;orthogonalLoop=1;jettySize=auto;html=1;" edge="1" parent="1" source="YCS9mpfpworKlvHF8gT9-54">
          <mxGeometry relative="1" as="geometry">
            <mxPoint x="732.47" y="1940" as="targetPoint" />
          </mxGeometry>
        </mxCell>
        <mxCell id="YCS9mpfpworKlvHF8gT9-53" value="false" style="edgeLabel;html=1;align=center;verticalAlign=middle;resizable=0;points=[];" vertex="1" connectable="0" parent="YCS9mpfpworKlvHF8gT9-52">
          <mxGeometry x="-0.1016" y="-2" relative="1" as="geometry">
            <mxPoint as="offset" />
          </mxGeometry>
        </mxCell>
        <mxCell id="YCS9mpfpworKlvHF8gT9-54" value="arr[i]%2==0" style="rhombus;whiteSpace=wrap;html=1;" vertex="1" parent="1">
          <mxGeometry x="687.47" y="2022.5" width="87.53" height="85" as="geometry" />
        </mxCell>
        <mxCell id="YCS9mpfpworKlvHF8gT9-55" style="edgeStyle=orthogonalEdgeStyle;rounded=0;orthogonalLoop=1;jettySize=auto;html=1;entryX=0;entryY=0.5;entryDx=0;entryDy=0;" edge="1" parent="1" source="YCS9mpfpworKlvHF8gT9-54" target="YCS9mpfpworKlvHF8gT9-49">
          <mxGeometry relative="1" as="geometry">
            <mxPoint x="840" y="2065" as="targetPoint" />
          </mxGeometry>
        </mxCell>
        <mxCell id="YCS9mpfpworKlvHF8gT9-56" value="true" style="edgeLabel;html=1;align=center;verticalAlign=middle;resizable=0;points=[];" vertex="1" connectable="0" parent="YCS9mpfpworKlvHF8gT9-55">
          <mxGeometry x="-0.0126" y="1" relative="1" as="geometry">
            <mxPoint x="-1" as="offset" />
          </mxGeometry>
        </mxCell>
        <mxCell id="YCS9mpfpworKlvHF8gT9-57" style="edgeStyle=orthogonalEdgeStyle;rounded=0;orthogonalLoop=1;jettySize=auto;html=1;entryX=0;entryY=0.5;entryDx=0;entryDy=0;" edge="1" parent="1" source="YCS9mpfpworKlvHF8gT9-60" target="YCS9mpfpworKlvHF8gT9-70">
          <mxGeometry relative="1" as="geometry">
            <mxPoint x="510" y="2425" as="targetPoint" />
          </mxGeometry>
        </mxCell>
        <mxCell id="YCS9mpfpworKlvHF8gT9-58" value="" style="edgeStyle=orthogonalEdgeStyle;rounded=0;orthogonalLoop=1;jettySize=auto;html=1;" edge="1" parent="1" source="YCS9mpfpworKlvHF8gT9-60" target="YCS9mpfpworKlvHF8gT9-86">
          <mxGeometry relative="1" as="geometry" />
        </mxCell>
        <mxCell id="YCS9mpfpworKlvHF8gT9-59" value="false" style="edgeLabel;html=1;align=center;verticalAlign=middle;resizable=0;points=[];" vertex="1" connectable="0" parent="YCS9mpfpworKlvHF8gT9-58">
          <mxGeometry x="-0.2015" relative="1" as="geometry">
            <mxPoint as="offset" />
          </mxGeometry>
        </mxCell>
        <mxCell id="YCS9mpfpworKlvHF8gT9-60" value="choice==4" style="rhombus;whiteSpace=wrap;html=1;" vertex="1" parent="1">
          <mxGeometry x="308.75" y="2370" width="112.5" height="110" as="geometry" />
        </mxCell>
        <mxCell id="YCS9mpfpworKlvHF8gT9-61" value="" style="edgeStyle=orthogonalEdgeStyle;rounded=0;orthogonalLoop=1;jettySize=auto;html=1;entryX=0;entryY=0.5;entryDx=0;entryDy=0;" edge="1" parent="1" source="YCS9mpfpworKlvHF8gT9-64" target="YCS9mpfpworKlvHF8gT9-75">
          <mxGeometry relative="1" as="geometry">
            <mxPoint x="885.0399999999995" y="2425" as="targetPoint" />
          </mxGeometry>
        </mxCell>
        <mxCell id="YCS9mpfpworKlvHF8gT9-62" value="true" style="edgeLabel;html=1;align=center;verticalAlign=middle;resizable=0;points=[];" vertex="1" connectable="0" parent="YCS9mpfpworKlvHF8gT9-61">
          <mxGeometry x="-0.2948" y="-5" relative="1" as="geometry">
            <mxPoint x="-1" as="offset" />
          </mxGeometry>
        </mxCell>
        <mxCell id="YCS9mpfpworKlvHF8gT9-63" style="edgeStyle=orthogonalEdgeStyle;rounded=0;orthogonalLoop=1;jettySize=auto;html=1;" edge="1" parent="1" source="YCS9mpfpworKlvHF8gT9-64" target="YCS9mpfpworKlvHF8gT9-83">
          <mxGeometry relative="1" as="geometry">
            <mxPoint x="775.0399999999995" y="2690" as="targetPoint" />
          </mxGeometry>
        </mxCell>
        <mxCell id="YCS9mpfpworKlvHF8gT9-64" value="i&amp;lt;currentIndex" style="rhombus;whiteSpace=wrap;html=1;" vertex="1" parent="1">
          <mxGeometry x="735.04" y="2385" width="80" height="80" as="geometry" />
        </mxCell>
        <mxCell id="YCS9mpfpworKlvHF8gT9-65" value="" style="edgeStyle=orthogonalEdgeStyle;rounded=0;orthogonalLoop=1;jettySize=auto;html=1;" edge="1" parent="1" target="YCS9mpfpworKlvHF8gT9-68">
          <mxGeometry relative="1" as="geometry">
            <mxPoint x="1250" y="2425" as="sourcePoint" />
          </mxGeometry>
        </mxCell>
        <mxCell id="YCS9mpfpworKlvHF8gT9-66" value="true" style="edgeLabel;html=1;align=center;verticalAlign=middle;resizable=0;points=[];" vertex="1" connectable="0" parent="YCS9mpfpworKlvHF8gT9-65">
          <mxGeometry x="0.2438" y="-1" relative="1" as="geometry">
            <mxPoint as="offset" />
          </mxGeometry>
        </mxCell>
        <mxCell id="YCS9mpfpworKlvHF8gT9-67" style="edgeStyle=orthogonalEdgeStyle;rounded=0;orthogonalLoop=1;jettySize=auto;html=1;" edge="1" parent="1" source="YCS9mpfpworKlvHF8gT9-68">
          <mxGeometry relative="1" as="geometry">
            <mxPoint x="677.54" y="2425" as="targetPoint" />
            <Array as="points">
              <mxPoint x="1390" y="2300" />
              <mxPoint x="678" y="2300" />
            </Array>
          </mxGeometry>
        </mxCell>
        <mxCell id="YCS9mpfpworKlvHF8gT9-68" value="i++" style="whiteSpace=wrap;html=1;" vertex="1" parent="1">
          <mxGeometry x="1350" y="2395" width="120" height="60" as="geometry" />
        </mxCell>
        <mxCell id="YCS9mpfpworKlvHF8gT9-69" style="edgeStyle=orthogonalEdgeStyle;rounded=0;orthogonalLoop=1;jettySize=auto;html=1;entryX=0;entryY=0.5;entryDx=0;entryDy=0;" edge="1" parent="1" source="YCS9mpfpworKlvHF8gT9-70" target="YCS9mpfpworKlvHF8gT9-64">
          <mxGeometry relative="1" as="geometry" />
        </mxCell>
        <mxCell id="YCS9mpfpworKlvHF8gT9-70" value="max=arr[]&lt;br&gt;min" style="rounded=1;whiteSpace=wrap;html=1;" vertex="1" parent="1">
          <mxGeometry x="525.02" y="2395" width="120" height="60" as="geometry" />
        </mxCell>
        <mxCell id="YCS9mpfpworKlvHF8gT9-71" value="" style="edgeStyle=orthogonalEdgeStyle;rounded=0;orthogonalLoop=1;jettySize=auto;html=1;" edge="1" parent="1" source="YCS9mpfpworKlvHF8gT9-75" target="YCS9mpfpworKlvHF8gT9-77">
          <mxGeometry relative="1" as="geometry" />
        </mxCell>
        <mxCell id="YCS9mpfpworKlvHF8gT9-72" value="true" style="edgeLabel;html=1;align=center;verticalAlign=middle;resizable=0;points=[];" vertex="1" connectable="0" parent="YCS9mpfpworKlvHF8gT9-71">
          <mxGeometry x="-0.275" y="4" relative="1" as="geometry">
            <mxPoint as="offset" />
          </mxGeometry>
        </mxCell>
        <mxCell id="YCS9mpfpworKlvHF8gT9-73" value="" style="edgeStyle=orthogonalEdgeStyle;rounded=0;orthogonalLoop=1;jettySize=auto;html=1;" edge="1" parent="1" source="YCS9mpfpworKlvHF8gT9-75" target="YCS9mpfpworKlvHF8gT9-78">
          <mxGeometry relative="1" as="geometry" />
        </mxCell>
        <mxCell id="YCS9mpfpworKlvHF8gT9-74" value="false" style="edgeLabel;html=1;align=center;verticalAlign=middle;resizable=0;points=[];" vertex="1" connectable="0" parent="YCS9mpfpworKlvHF8gT9-73">
          <mxGeometry x="-0.1944" y="3" relative="1" as="geometry">
            <mxPoint as="offset" />
          </mxGeometry>
        </mxCell>
        <mxCell id="YCS9mpfpworKlvHF8gT9-75" value="max&amp;gt;arr[i]" style="rhombus;whiteSpace=wrap;html=1;" vertex="1" parent="1">
          <mxGeometry x="910" y="2385" width="80" height="80" as="geometry" />
        </mxCell>
        <mxCell id="YCS9mpfpworKlvHF8gT9-76" value="false" style="edgeStyle=orthogonalEdgeStyle;rounded=0;orthogonalLoop=1;jettySize=auto;html=1;" edge="1" parent="1" source="YCS9mpfpworKlvHF8gT9-77" target="YCS9mpfpworKlvHF8gT9-79">
          <mxGeometry relative="1" as="geometry" />
        </mxCell>
        <mxCell id="YCS9mpfpworKlvHF8gT9-77" value="min&amp;lt;arr[i]" style="rhombus;whiteSpace=wrap;html=1;" vertex="1" parent="1">
          <mxGeometry x="1200" y="2385" width="80" height="80" as="geometry" />
        </mxCell>
        <mxCell id="YCS9mpfpworKlvHF8gT9-78" value="max=arr[i]" style="whiteSpace=wrap;html=1;" vertex="1" parent="1">
          <mxGeometry x="890" y="2555" width="120" height="60" as="geometry" />
        </mxCell>
        <mxCell id="YCS9mpfpworKlvHF8gT9-79" value="min=arr[i]" style="whiteSpace=wrap;html=1;" vertex="1" parent="1">
          <mxGeometry x="1180" y="2555" width="120" height="60" as="geometry" />
        </mxCell>
        <mxCell id="YCS9mpfpworKlvHF8gT9-80" value="" style="endArrow=classic;html=1;rounded=0;exitX=1;exitY=0;exitDx=0;exitDy=0;entryX=0;entryY=1;entryDx=0;entryDy=0;" edge="1" parent="1" source="YCS9mpfpworKlvHF8gT9-78" target="YCS9mpfpworKlvHF8gT9-77">
          <mxGeometry width="50" height="50" relative="1" as="geometry">
            <mxPoint x="860" y="2520" as="sourcePoint" />
            <mxPoint x="910" y="2470" as="targetPoint" />
          </mxGeometry>
        </mxCell>
        <mxCell id="YCS9mpfpworKlvHF8gT9-81" style="edgeStyle=orthogonalEdgeStyle;rounded=0;orthogonalLoop=1;jettySize=auto;html=1;entryX=0.367;entryY=0.979;entryDx=0;entryDy=0;entryPerimeter=0;" edge="1" parent="1" source="YCS9mpfpworKlvHF8gT9-79" target="YCS9mpfpworKlvHF8gT9-68">
          <mxGeometry relative="1" as="geometry" />
        </mxCell>
        <mxCell id="YCS9mpfpworKlvHF8gT9-82" style="edgeStyle=orthogonalEdgeStyle;rounded=0;orthogonalLoop=1;jettySize=auto;html=1;" edge="1" parent="1">
          <mxGeometry relative="1" as="geometry">
            <mxPoint x="1390" y="710" as="targetPoint" />
            <mxPoint x="835.0399999999995" y="2690" as="sourcePoint" />
            <Array as="points">
              <mxPoint x="1880" y="2691" />
              <mxPoint x="1880" y="710" />
            </Array>
          </mxGeometry>
        </mxCell>
        <mxCell id="YCS9mpfpworKlvHF8gT9-83" value="max&lt;br&gt;min" style="shape=parallelogram;perimeter=parallelogramPerimeter;whiteSpace=wrap;html=1;fixedSize=1;" vertex="1" parent="1">
          <mxGeometry x="715.0399999999995" y="2660" width="120" height="60" as="geometry" />
        </mxCell>
        <mxCell id="YCS9mpfpworKlvHF8gT9-84" value="" style="edgeStyle=orthogonalEdgeStyle;rounded=0;orthogonalLoop=1;jettySize=auto;html=1;" edge="1" parent="1" source="YCS9mpfpworKlvHF8gT9-86" target="YCS9mpfpworKlvHF8gT9-88">
          <mxGeometry relative="1" as="geometry" />
        </mxCell>
        <mxCell id="YCS9mpfpworKlvHF8gT9-85" value="" style="edgeStyle=orthogonalEdgeStyle;rounded=0;orthogonalLoop=1;jettySize=auto;html=1;" edge="1" parent="1" source="YCS9mpfpworKlvHF8gT9-86" target="YCS9mpfpworKlvHF8gT9-111">
          <mxGeometry relative="1" as="geometry" />
        </mxCell>
        <mxCell id="YCS9mpfpworKlvHF8gT9-86" value="choice==7" style="rhombus;whiteSpace=wrap;html=1;" vertex="1" parent="1">
          <mxGeometry x="308.75" y="2930" width="112.5" height="110" as="geometry" />
        </mxCell>
        <mxCell id="YCS9mpfpworKlvHF8gT9-87" value="" style="edgeStyle=orthogonalEdgeStyle;rounded=0;orthogonalLoop=1;jettySize=auto;html=1;" edge="1" parent="1" source="YCS9mpfpworKlvHF8gT9-88" target="YCS9mpfpworKlvHF8gT9-93">
          <mxGeometry relative="1" as="geometry" />
        </mxCell>
        <mxCell id="YCS9mpfpworKlvHF8gT9-88" value="addIndex&lt;br&gt;addValue" style="shape=parallelogram;perimeter=parallelogramPerimeter;whiteSpace=wrap;html=1;fixedSize=1;" vertex="1" parent="1">
          <mxGeometry x="497.5" y="2955" width="120" height="60" as="geometry" />
        </mxCell>
        <mxCell id="YCS9mpfpworKlvHF8gT9-89" value="" style="edgeStyle=orthogonalEdgeStyle;rounded=0;orthogonalLoop=1;jettySize=auto;html=1;" edge="1" parent="1" source="YCS9mpfpworKlvHF8gT9-93" target="YCS9mpfpworKlvHF8gT9-100">
          <mxGeometry relative="1" as="geometry" />
        </mxCell>
        <mxCell id="YCS9mpfpworKlvHF8gT9-90" value="true" style="edgeLabel;html=1;align=center;verticalAlign=middle;resizable=0;points=[];" vertex="1" connectable="0" parent="YCS9mpfpworKlvHF8gT9-89">
          <mxGeometry x="-0.282" y="2" relative="1" as="geometry">
            <mxPoint as="offset" />
          </mxGeometry>
        </mxCell>
        <mxCell id="YCS9mpfpworKlvHF8gT9-91" style="edgeStyle=orthogonalEdgeStyle;rounded=0;orthogonalLoop=1;jettySize=auto;html=1;" edge="1" parent="1" source="YCS9mpfpworKlvHF8gT9-93" target="YCS9mpfpworKlvHF8gT9-104">
          <mxGeometry relative="1" as="geometry" />
        </mxCell>
        <mxCell id="YCS9mpfpworKlvHF8gT9-92" value="false" style="edgeLabel;html=1;align=center;verticalAlign=middle;resizable=0;points=[];" vertex="1" connectable="0" parent="YCS9mpfpworKlvHF8gT9-91">
          <mxGeometry x="-0.1212" y="5" relative="1" as="geometry">
            <mxPoint y="-1" as="offset" />
          </mxGeometry>
        </mxCell>
        <mxCell id="YCS9mpfpworKlvHF8gT9-93" value="currentIndex&amp;gt; index" style="rhombus;whiteSpace=wrap;html=1;" vertex="1" parent="1">
          <mxGeometry x="715.04" y="2923" width="182.5" height="125" as="geometry" />
        </mxCell>
        <mxCell id="YCS9mpfpworKlvHF8gT9-94" value="" style="edgeStyle=orthogonalEdgeStyle;rounded=0;orthogonalLoop=1;jettySize=auto;html=1;" edge="1" parent="1" source="YCS9mpfpworKlvHF8gT9-98" target="YCS9mpfpworKlvHF8gT9-102">
          <mxGeometry relative="1" as="geometry">
            <mxPoint x="1330" y="2985.4999999999995" as="targetPoint" />
          </mxGeometry>
        </mxCell>
        <mxCell id="YCS9mpfpworKlvHF8gT9-95" value="true" style="edgeLabel;html=1;align=center;verticalAlign=middle;resizable=0;points=[];" vertex="1" connectable="0" parent="YCS9mpfpworKlvHF8gT9-94">
          <mxGeometry x="-0.2948" y="-5" relative="1" as="geometry">
            <mxPoint x="-1" as="offset" />
          </mxGeometry>
        </mxCell>
        <mxCell id="YCS9mpfpworKlvHF8gT9-96" style="edgeStyle=orthogonalEdgeStyle;rounded=0;orthogonalLoop=1;jettySize=auto;html=1;" edge="1" parent="1" source="YCS9mpfpworKlvHF8gT9-98" target="YCS9mpfpworKlvHF8gT9-106">
          <mxGeometry relative="1" as="geometry" />
        </mxCell>
        <mxCell id="YCS9mpfpworKlvHF8gT9-97" value="false" style="edgeLabel;html=1;align=center;verticalAlign=middle;resizable=0;points=[];" vertex="1" connectable="0" parent="YCS9mpfpworKlvHF8gT9-96">
          <mxGeometry x="-0.1373" relative="1" as="geometry">
            <mxPoint y="1" as="offset" />
          </mxGeometry>
        </mxCell>
        <mxCell id="YCS9mpfpworKlvHF8gT9-98" value="i&amp;gt;index" style="rhombus;whiteSpace=wrap;html=1;" vertex="1" parent="1">
          <mxGeometry x="1180" y="2945.5" width="80" height="80" as="geometry" />
        </mxCell>
        <mxCell id="YCS9mpfpworKlvHF8gT9-99" style="edgeStyle=orthogonalEdgeStyle;rounded=0;orthogonalLoop=1;jettySize=auto;html=1;entryX=0;entryY=0.5;entryDx=0;entryDy=0;" edge="1" parent="1" source="YCS9mpfpworKlvHF8gT9-100" target="YCS9mpfpworKlvHF8gT9-98">
          <mxGeometry relative="1" as="geometry" />
        </mxCell>
        <mxCell id="YCS9mpfpworKlvHF8gT9-100" value="i=currentIndex" style="whiteSpace=wrap;html=1;" vertex="1" parent="1">
          <mxGeometry x="980" y="2955.5" width="120" height="60" as="geometry" />
        </mxCell>
        <mxCell id="YCS9mpfpworKlvHF8gT9-101" style="edgeStyle=orthogonalEdgeStyle;rounded=0;orthogonalLoop=1;jettySize=auto;html=1;" edge="1" parent="1" source="YCS9mpfpworKlvHF8gT9-102">
          <mxGeometry relative="1" as="geometry">
            <mxPoint x="1130" y="2986" as="targetPoint" />
            <Array as="points">
              <mxPoint x="1455" y="2880" />
              <mxPoint x="1130" y="2880" />
            </Array>
          </mxGeometry>
        </mxCell>
        <mxCell id="YCS9mpfpworKlvHF8gT9-102" value="&#xa;&lt;div style=&quot;color: rgb(212, 212, 212); background-color: rgb(30, 30, 30); font-family: Consolas, &amp;quot;Courier New&amp;quot;, monospace; font-weight: normal; font-size: 14px; line-height: 19px;&quot;&gt;&lt;div&gt;&lt;span style=&quot;color: #d4d4d4;&quot;&gt;&amp;nbsp;&lt;/span&gt;&lt;span style=&quot;color: #c8c8c8;&quot;&gt;arr&lt;/span&gt;&lt;span style=&quot;color: #d4d4d4;&quot;&gt;[&lt;/span&gt;&lt;span style=&quot;color: #c8c8c8;&quot;&gt;i&lt;/span&gt;&lt;span style=&quot;color: #d4d4d4;&quot;&gt;] = &lt;/span&gt;&lt;span style=&quot;color: #c8c8c8;&quot;&gt;arr&lt;/span&gt;&lt;span style=&quot;color: #d4d4d4;&quot;&gt;[&lt;/span&gt;&lt;span style=&quot;color: #c8c8c8;&quot;&gt;i&lt;/span&gt;&lt;span style=&quot;color: #d4d4d4;&quot;&gt; - &lt;/span&gt;&lt;span style=&quot;color: #b5cea8;&quot;&gt;1&lt;/span&gt;&lt;span style=&quot;color: #d4d4d4;&quot;&gt;]; &amp;nbsp; &amp;nbsp;&lt;/span&gt;&lt;/div&gt;&lt;/div&gt;&#xa;&#xa;" style="rounded=1;whiteSpace=wrap;html=1;" vertex="1" parent="1">
          <mxGeometry x="1370" y="2957.12" width="170" height="58.38" as="geometry" />
        </mxCell>
        <mxCell id="YCS9mpfpworKlvHF8gT9-103" style="edgeStyle=orthogonalEdgeStyle;rounded=0;orthogonalLoop=1;jettySize=auto;html=1;entryX=0;entryY=0.5;entryDx=0;entryDy=0;" edge="1" parent="1" source="YCS9mpfpworKlvHF8gT9-104" target="YCS9mpfpworKlvHF8gT9-106">
          <mxGeometry relative="1" as="geometry" />
        </mxCell>
        <mxCell id="YCS9mpfpworKlvHF8gT9-104" value="&#xa;&lt;div style=&quot;color: rgb(212, 212, 212); background-color: rgb(30, 30, 30); font-family: Consolas, &amp;quot;Courier New&amp;quot;, monospace; font-weight: normal; font-size: 14px; line-height: 19px;&quot;&gt;&lt;div&gt;&lt;span style=&quot;color: #c8c8c8;&quot;&gt;currentIndex&lt;/span&gt;&lt;span style=&quot;color: #d4d4d4;&quot;&gt;=&lt;/span&gt;&lt;span style=&quot;color: #c8c8c8;&quot;&gt;index&lt;/span&gt;&lt;span style=&quot;color: #d4d4d4;&quot;&gt;+&lt;/span&gt;&lt;span style=&quot;color: #b5cea8;&quot;&gt;1&lt;/span&gt;&lt;/div&gt;&lt;/div&gt;&#xa;&#xa;" style="whiteSpace=wrap;html=1;" vertex="1" parent="1">
          <mxGeometry x="721.29" y="3180" width="170" height="84.5" as="geometry" />
        </mxCell>
        <mxCell id="YCS9mpfpworKlvHF8gT9-105" value="" style="edgeStyle=orthogonalEdgeStyle;rounded=0;orthogonalLoop=1;jettySize=auto;html=1;" edge="1" parent="1" source="YCS9mpfpworKlvHF8gT9-106" target="YCS9mpfpworKlvHF8gT9-108">
          <mxGeometry relative="1" as="geometry" />
        </mxCell>
        <mxCell id="YCS9mpfpworKlvHF8gT9-106" value="&#xa;&lt;div style=&quot;color: rgb(212, 212, 212); background-color: rgb(30, 30, 30); font-family: Consolas, &amp;quot;Courier New&amp;quot;, monospace; font-weight: normal; font-size: 14px; line-height: 19px;&quot;&gt;&lt;div&gt;&lt;span style=&quot;color: #d4d4d4;&quot;&gt;&amp;nbsp; &amp;nbsp; &amp;nbsp; &amp;nbsp; &amp;nbsp; &amp;nbsp; &lt;/span&gt;&lt;span style=&quot;color: #c8c8c8;&quot;&gt;arr&lt;/span&gt;&lt;span style=&quot;color: #d4d4d4;&quot;&gt;[&lt;/span&gt;&lt;span style=&quot;color: #c8c8c8;&quot;&gt;index&lt;/span&gt;&lt;span style=&quot;color: #d4d4d4;&quot;&gt;] = &lt;/span&gt;&lt;span style=&quot;color: #c8c8c8;&quot;&gt;addvalue&lt;/span&gt;&lt;span style=&quot;color: #d4d4d4;&quot;&gt;;&lt;/span&gt;&lt;/div&gt;&lt;/div&gt;&#xa;&#xa;" style="whiteSpace=wrap;html=1;" vertex="1" parent="1">
          <mxGeometry x="1160" y="3192.25" width="120" height="60" as="geometry" />
        </mxCell>
        <mxCell id="YCS9mpfpworKlvHF8gT9-107" style="edgeStyle=orthogonalEdgeStyle;rounded=0;orthogonalLoop=1;jettySize=auto;html=1;" edge="1" parent="1" source="YCS9mpfpworKlvHF8gT9-108">
          <mxGeometry relative="1" as="geometry">
            <mxPoint x="1882.8571428571433" y="2420" as="targetPoint" />
          </mxGeometry>
        </mxCell>
        <mxCell id="YCS9mpfpworKlvHF8gT9-108" value="arr[index]" style="shape=parallelogram;perimeter=parallelogramPerimeter;whiteSpace=wrap;html=1;fixedSize=1;" vertex="1" parent="1">
          <mxGeometry x="1360" y="3192.25" width="120" height="60" as="geometry" />
        </mxCell>
        <mxCell id="YCS9mpfpworKlvHF8gT9-109" value="" style="edgeStyle=orthogonalEdgeStyle;rounded=0;orthogonalLoop=1;jettySize=auto;html=1;" edge="1" parent="1" source="YCS9mpfpworKlvHF8gT9-111" target="YCS9mpfpworKlvHF8gT9-113">
          <mxGeometry relative="1" as="geometry" />
        </mxCell>
        <mxCell id="YCS9mpfpworKlvHF8gT9-110" value="" style="edgeStyle=orthogonalEdgeStyle;rounded=0;orthogonalLoop=1;jettySize=auto;html=1;" edge="1" parent="1" source="YCS9mpfpworKlvHF8gT9-111" target="YCS9mpfpworKlvHF8gT9-146">
          <mxGeometry relative="1" as="geometry" />
        </mxCell>
        <mxCell id="YCS9mpfpworKlvHF8gT9-111" value="choice==5" style="rhombus;whiteSpace=wrap;html=1;" vertex="1" parent="1">
          <mxGeometry x="308.75" y="3560" width="112.5" height="110" as="geometry" />
        </mxCell>
        <mxCell id="YCS9mpfpworKlvHF8gT9-112" value="" style="edgeStyle=orthogonalEdgeStyle;rounded=0;orthogonalLoop=1;jettySize=auto;html=1;" edge="1" parent="1" source="YCS9mpfpworKlvHF8gT9-113" target="YCS9mpfpworKlvHF8gT9-118">
          <mxGeometry relative="1" as="geometry" />
        </mxCell>
        <mxCell id="YCS9mpfpworKlvHF8gT9-113" value="sum=0&lt;br&gt;i=0" style="whiteSpace=wrap;html=1;" vertex="1" parent="1">
          <mxGeometry x="497.5" y="3585" width="120" height="60" as="geometry" />
        </mxCell>
        <mxCell id="YCS9mpfpworKlvHF8gT9-114" value="" style="edgeStyle=orthogonalEdgeStyle;rounded=0;orthogonalLoop=1;jettySize=auto;html=1;entryX=0;entryY=0.5;entryDx=0;entryDy=0;" edge="1" parent="1" source="YCS9mpfpworKlvHF8gT9-118" target="YCS9mpfpworKlvHF8gT9-129">
          <mxGeometry relative="1" as="geometry">
            <mxPoint x="1010.0833333333339" y="3616.333333333334" as="targetPoint" />
          </mxGeometry>
        </mxCell>
        <mxCell id="YCS9mpfpworKlvHF8gT9-115" value="true" style="edgeLabel;html=1;align=center;verticalAlign=middle;resizable=0;points=[];" vertex="1" connectable="0" parent="YCS9mpfpworKlvHF8gT9-114">
          <mxGeometry x="-0.2293" y="5" relative="1" as="geometry">
            <mxPoint as="offset" />
          </mxGeometry>
        </mxCell>
        <mxCell id="YCS9mpfpworKlvHF8gT9-116" value="" style="edgeStyle=orthogonalEdgeStyle;rounded=0;orthogonalLoop=1;jettySize=auto;html=1;" edge="1" parent="1" source="YCS9mpfpworKlvHF8gT9-118" target="YCS9mpfpworKlvHF8gT9-143">
          <mxGeometry relative="1" as="geometry" />
        </mxCell>
        <mxCell id="YCS9mpfpworKlvHF8gT9-117" value="fasle" style="edgeLabel;html=1;align=center;verticalAlign=middle;resizable=0;points=[];" vertex="1" connectable="0" parent="YCS9mpfpworKlvHF8gT9-116">
          <mxGeometry x="0.139" y="7" relative="1" as="geometry">
            <mxPoint as="offset" />
          </mxGeometry>
        </mxCell>
        <mxCell id="YCS9mpfpworKlvHF8gT9-118" value="i&amp;lt;currentIndex" style="rhombus;whiteSpace=wrap;html=1;" vertex="1" parent="1">
          <mxGeometry x="701.25" y="3552.5" width="192.5" height="125" as="geometry" />
        </mxCell>
        <mxCell id="YCS9mpfpworKlvHF8gT9-119" value="" style="edgeStyle=orthogonalEdgeStyle;rounded=0;orthogonalLoop=1;jettySize=auto;html=1;" edge="1" parent="1" source="YCS9mpfpworKlvHF8gT9-123" target="YCS9mpfpworKlvHF8gT9-125">
          <mxGeometry relative="1" as="geometry" />
        </mxCell>
        <mxCell id="YCS9mpfpworKlvHF8gT9-120" value="true" style="edgeLabel;html=1;align=center;verticalAlign=middle;resizable=0;points=[];" vertex="1" connectable="0" parent="YCS9mpfpworKlvHF8gT9-119">
          <mxGeometry x="-0.186" y="-2" relative="1" as="geometry">
            <mxPoint x="1" as="offset" />
          </mxGeometry>
        </mxCell>
        <mxCell id="YCS9mpfpworKlvHF8gT9-121" style="edgeStyle=orthogonalEdgeStyle;rounded=0;orthogonalLoop=1;jettySize=auto;html=1;" edge="1" parent="1" source="YCS9mpfpworKlvHF8gT9-123">
          <mxGeometry relative="1" as="geometry">
            <mxPoint x="1603" y="3446" as="targetPoint" />
          </mxGeometry>
        </mxCell>
        <mxCell id="YCS9mpfpworKlvHF8gT9-122" value="false" style="edgeLabel;html=1;align=center;verticalAlign=middle;resizable=0;points=[];" vertex="1" connectable="0" parent="YCS9mpfpworKlvHF8gT9-121">
          <mxGeometry x="-0.2291" y="2" relative="1" as="geometry">
            <mxPoint x="1" y="1" as="offset" />
          </mxGeometry>
        </mxCell>
        <mxCell id="YCS9mpfpworKlvHF8gT9-123" value="&lt;div style=&quot;color: rgb(212, 212, 212); background-color: rgb(30, 30, 30); font-family: Consolas, &amp;quot;Courier New&amp;quot;, monospace; font-size: 14px; line-height: 19px;&quot;&gt;arr[&lt;span style=&quot;color: #c8c8c8;&quot;&gt;i&lt;/span&gt;] % &lt;span style=&quot;color: #c8c8c8;&quot;&gt;j&lt;/span&gt; == &lt;span style=&quot;color: #b5cea8;&quot;&gt;0&lt;/span&gt; &amp;amp;&amp;amp; &lt;span style=&quot;color: #c8c8c8;&quot;&gt;j&lt;/span&gt; != &lt;span style=&quot;color: #b5cea8;&quot;&gt;1&lt;/span&gt;&lt;/div&gt;" style="rhombus;whiteSpace=wrap;html=1;" vertex="1" parent="1">
          <mxGeometry x="1470" y="3552.5" width="266.25" height="127.5" as="geometry" />
        </mxCell>
        <mxCell id="YCS9mpfpworKlvHF8gT9-124" style="edgeStyle=orthogonalEdgeStyle;rounded=0;orthogonalLoop=1;jettySize=auto;html=1;" edge="1" parent="1" source="YCS9mpfpworKlvHF8gT9-125">
          <mxGeometry relative="1" as="geometry">
            <mxPoint x="1170" y="3615" as="targetPoint" />
            <Array as="points">
              <mxPoint x="1874" y="3450" />
              <mxPoint x="1170" y="3450" />
            </Array>
          </mxGeometry>
        </mxCell>
        <mxCell id="YCS9mpfpworKlvHF8gT9-125" value="count++" style="whiteSpace=wrap;html=1;" vertex="1" parent="1">
          <mxGeometry x="1813.9950000000001" y="3585" width="120" height="60" as="geometry" />
        </mxCell>
        <mxCell id="YCS9mpfpworKlvHF8gT9-126" style="edgeStyle=orthogonalEdgeStyle;rounded=0;orthogonalLoop=1;jettySize=auto;html=1;entryX=0;entryY=0.5;entryDx=0;entryDy=0;exitX=1;exitY=0.5;exitDx=0;exitDy=0;" edge="1" parent="1" source="YCS9mpfpworKlvHF8gT9-132" target="YCS9mpfpworKlvHF8gT9-123">
          <mxGeometry relative="1" as="geometry">
            <mxPoint x="1340" y="3616" as="sourcePoint" />
          </mxGeometry>
        </mxCell>
        <mxCell id="YCS9mpfpworKlvHF8gT9-127" value="true" style="edgeLabel;html=1;align=center;verticalAlign=middle;resizable=0;points=[];" vertex="1" connectable="0" parent="YCS9mpfpworKlvHF8gT9-126">
          <mxGeometry x="0.0238" y="-7" relative="1" as="geometry">
            <mxPoint as="offset" />
          </mxGeometry>
        </mxCell>
        <mxCell id="YCS9mpfpworKlvHF8gT9-128" style="edgeStyle=orthogonalEdgeStyle;rounded=0;orthogonalLoop=1;jettySize=auto;html=1;entryX=0;entryY=0.5;entryDx=0;entryDy=0;" edge="1" parent="1" source="YCS9mpfpworKlvHF8gT9-129" target="YCS9mpfpworKlvHF8gT9-132">
          <mxGeometry relative="1" as="geometry" />
        </mxCell>
        <mxCell id="YCS9mpfpworKlvHF8gT9-129" value="count=0&lt;br&gt;j=0" style="rounded=1;whiteSpace=wrap;html=1;" vertex="1" parent="1">
          <mxGeometry x="990" y="3586.25" width="120" height="60" as="geometry" />
        </mxCell>
        <mxCell id="YCS9mpfpworKlvHF8gT9-130" value="" style="edgeStyle=orthogonalEdgeStyle;rounded=0;orthogonalLoop=1;jettySize=auto;html=1;" edge="1" parent="1" source="YCS9mpfpworKlvHF8gT9-132" target="YCS9mpfpworKlvHF8gT9-137">
          <mxGeometry relative="1" as="geometry" />
        </mxCell>
        <mxCell id="YCS9mpfpworKlvHF8gT9-131" value="false" style="edgeLabel;html=1;align=center;verticalAlign=middle;resizable=0;points=[];" vertex="1" connectable="0" parent="YCS9mpfpworKlvHF8gT9-130">
          <mxGeometry x="-0.2447" y="-1" relative="1" as="geometry">
            <mxPoint as="offset" />
          </mxGeometry>
        </mxCell>
        <mxCell id="YCS9mpfpworKlvHF8gT9-132" value="j&amp;lt;=sqrt(arr[i])" style="rhombus;whiteSpace=wrap;html=1;" vertex="1" parent="1">
          <mxGeometry x="1210" y="3554.38" width="120" height="123.75" as="geometry" />
        </mxCell>
        <mxCell id="YCS9mpfpworKlvHF8gT9-133" value="" style="edgeStyle=orthogonalEdgeStyle;rounded=0;orthogonalLoop=1;jettySize=auto;html=1;" edge="1" parent="1" source="YCS9mpfpworKlvHF8gT9-137" target="YCS9mpfpworKlvHF8gT9-139">
          <mxGeometry relative="1" as="geometry" />
        </mxCell>
        <mxCell id="YCS9mpfpworKlvHF8gT9-134" value="true" style="edgeLabel;html=1;align=center;verticalAlign=middle;resizable=0;points=[];" vertex="1" connectable="0" parent="YCS9mpfpworKlvHF8gT9-133">
          <mxGeometry x="-0.1028" y="3" relative="1" as="geometry">
            <mxPoint as="offset" />
          </mxGeometry>
        </mxCell>
        <mxCell id="YCS9mpfpworKlvHF8gT9-135" style="edgeStyle=orthogonalEdgeStyle;rounded=0;orthogonalLoop=1;jettySize=auto;html=1;" edge="1" parent="1" source="YCS9mpfpworKlvHF8gT9-137">
          <mxGeometry relative="1" as="geometry">
            <mxPoint x="670" y="3610" as="targetPoint" />
          </mxGeometry>
        </mxCell>
        <mxCell id="YCS9mpfpworKlvHF8gT9-136" value="false" style="edgeLabel;html=1;align=center;verticalAlign=middle;resizable=0;points=[];" vertex="1" connectable="0" parent="YCS9mpfpworKlvHF8gT9-135">
          <mxGeometry x="-0.3809" y="2" relative="1" as="geometry">
            <mxPoint as="offset" />
          </mxGeometry>
        </mxCell>
        <mxCell id="YCS9mpfpworKlvHF8gT9-137" value="&lt;div style=&quot;color: rgb(212, 212, 212); background-color: rgb(30, 30, 30); font-family: Consolas, &amp;quot;Courier New&amp;quot;, monospace; font-size: 14px; line-height: 19px;&quot;&gt;count == &lt;span style=&quot;color: #b5cea8;&quot;&gt;0&lt;/span&gt; &amp;amp;&amp;amp; &lt;span style=&quot;color: #c8c8c8;&quot;&gt;arr&lt;/span&gt;[&lt;span style=&quot;color: #c8c8c8;&quot;&gt;i&lt;/span&gt;] &amp;gt;= &lt;span style=&quot;color: #b5cea8;&quot;&gt;2&lt;/span&gt;&lt;/div&gt;" style="rhombus;whiteSpace=wrap;html=1;" vertex="1" parent="1">
          <mxGeometry x="1150" y="3760" width="240" height="151.87" as="geometry" />
        </mxCell>
        <mxCell id="YCS9mpfpworKlvHF8gT9-138" value="" style="edgeStyle=orthogonalEdgeStyle;rounded=0;orthogonalLoop=1;jettySize=auto;html=1;" edge="1" parent="1" source="YCS9mpfpworKlvHF8gT9-139" target="YCS9mpfpworKlvHF8gT9-141">
          <mxGeometry relative="1" as="geometry" />
        </mxCell>
        <mxCell id="YCS9mpfpworKlvHF8gT9-139" value="sum+=arr[i]" style="whiteSpace=wrap;html=1;" vertex="1" parent="1">
          <mxGeometry x="1520" y="3805.935" width="120" height="60" as="geometry" />
        </mxCell>
        <mxCell id="YCS9mpfpworKlvHF8gT9-140" style="edgeStyle=orthogonalEdgeStyle;rounded=0;orthogonalLoop=1;jettySize=auto;html=1;exitX=0.5;exitY=1;exitDx=0;exitDy=0;" edge="1" parent="1" source="YCS9mpfpworKlvHF8gT9-141">
          <mxGeometry relative="1" as="geometry">
            <mxPoint x="678" y="3840" as="targetPoint" />
            <mxPoint x="1787.5" y="3925.9349999999995" as="sourcePoint" />
            <Array as="points">
              <mxPoint x="1780" y="3950" />
              <mxPoint x="678" y="3950" />
            </Array>
          </mxGeometry>
        </mxCell>
        <mxCell id="YCS9mpfpworKlvHF8gT9-141" value="arr[i]" style="shape=parallelogram;perimeter=parallelogramPerimeter;whiteSpace=wrap;html=1;fixedSize=1;" vertex="1" parent="1">
          <mxGeometry x="1720" y="3805.935" width="120" height="60" as="geometry" />
        </mxCell>
        <mxCell id="YCS9mpfpworKlvHF8gT9-142" style="edgeStyle=orthogonalEdgeStyle;rounded=0;orthogonalLoop=1;jettySize=auto;html=1;" edge="1" parent="1" source="YCS9mpfpworKlvHF8gT9-143">
          <mxGeometry relative="1" as="geometry">
            <mxPoint x="1880" y="3200" as="targetPoint" />
          </mxGeometry>
        </mxCell>
        <mxCell id="YCS9mpfpworKlvHF8gT9-143" value="sum" style="shape=parallelogram;perimeter=parallelogramPerimeter;whiteSpace=wrap;html=1;fixedSize=1;" vertex="1" parent="1">
          <mxGeometry x="737.5" y="3380" width="120" height="60" as="geometry" />
        </mxCell>
        <mxCell id="YCS9mpfpworKlvHF8gT9-144" value="" style="edgeStyle=orthogonalEdgeStyle;rounded=0;orthogonalLoop=1;jettySize=auto;html=1;" edge="1" parent="1" source="YCS9mpfpworKlvHF8gT9-146" target="YCS9mpfpworKlvHF8gT9-148">
          <mxGeometry relative="1" as="geometry" />
        </mxCell>
        <mxCell id="YCS9mpfpworKlvHF8gT9-145" value="" style="edgeStyle=orthogonalEdgeStyle;rounded=0;orthogonalLoop=1;jettySize=auto;html=1;" edge="1" parent="1" source="YCS9mpfpworKlvHF8gT9-146" target="YCS9mpfpworKlvHF8gT9-164">
          <mxGeometry relative="1" as="geometry" />
        </mxCell>
        <mxCell id="YCS9mpfpworKlvHF8gT9-146" value="choice==6" style="rhombus;whiteSpace=wrap;html=1;" vertex="1" parent="1">
          <mxGeometry x="308.75" y="4130" width="112.5" height="110" as="geometry" />
        </mxCell>
        <mxCell id="YCS9mpfpworKlvHF8gT9-147" value="" style="edgeStyle=orthogonalEdgeStyle;rounded=0;orthogonalLoop=1;jettySize=auto;html=1;" edge="1" parent="1" source="YCS9mpfpworKlvHF8gT9-148" target="YCS9mpfpworKlvHF8gT9-150">
          <mxGeometry relative="1" as="geometry" />
        </mxCell>
        <mxCell id="YCS9mpfpworKlvHF8gT9-148" value="findNumber" style="shape=parallelogram;perimeter=parallelogramPerimeter;whiteSpace=wrap;html=1;fixedSize=1;" vertex="1" parent="1">
          <mxGeometry x="497.5" y="4151.25" width="152.5" height="68.75" as="geometry" />
        </mxCell>
        <mxCell id="YCS9mpfpworKlvHF8gT9-149" value="" style="edgeStyle=orthogonalEdgeStyle;rounded=0;orthogonalLoop=1;jettySize=auto;html=1;" edge="1" parent="1" source="YCS9mpfpworKlvHF8gT9-150" target="YCS9mpfpworKlvHF8gT9-155">
          <mxGeometry relative="1" as="geometry" />
        </mxCell>
        <mxCell id="YCS9mpfpworKlvHF8gT9-150" value="count=0&lt;br&gt;i=0" style="whiteSpace=wrap;html=1;" vertex="1" parent="1">
          <mxGeometry x="746.25" y="4155.625" width="120" height="60" as="geometry" />
        </mxCell>
        <mxCell id="YCS9mpfpworKlvHF8gT9-151" value="" style="edgeStyle=orthogonalEdgeStyle;rounded=0;orthogonalLoop=1;jettySize=auto;html=1;" edge="1" parent="1" source="YCS9mpfpworKlvHF8gT9-155" target="YCS9mpfpworKlvHF8gT9-158">
          <mxGeometry relative="1" as="geometry" />
        </mxCell>
        <mxCell id="YCS9mpfpworKlvHF8gT9-152" value="true" style="edgeLabel;html=1;align=center;verticalAlign=middle;resizable=0;points=[];" vertex="1" connectable="0" parent="YCS9mpfpworKlvHF8gT9-151">
          <mxGeometry x="0.0313" y="1" relative="1" as="geometry">
            <mxPoint as="offset" />
          </mxGeometry>
        </mxCell>
        <mxCell id="YCS9mpfpworKlvHF8gT9-153" value="" style="edgeStyle=orthogonalEdgeStyle;rounded=0;orthogonalLoop=1;jettySize=auto;html=1;" edge="1" parent="1" source="YCS9mpfpworKlvHF8gT9-155" target="YCS9mpfpworKlvHF8gT9-162">
          <mxGeometry relative="1" as="geometry">
            <mxPoint x="1076.875" y="4362.195" as="targetPoint" />
          </mxGeometry>
        </mxCell>
        <mxCell id="YCS9mpfpworKlvHF8gT9-154" value="false" style="edgeLabel;html=1;align=center;verticalAlign=middle;resizable=0;points=[];" vertex="1" connectable="0" parent="YCS9mpfpworKlvHF8gT9-153">
          <mxGeometry x="-0.093" y="5" relative="1" as="geometry">
            <mxPoint as="offset" />
          </mxGeometry>
        </mxCell>
        <mxCell id="YCS9mpfpworKlvHF8gT9-155" value="i&amp;lt;currentNumber" style="rhombus;whiteSpace=wrap;html=1;" vertex="1" parent="1">
          <mxGeometry x="1010" y="4122.34" width="133.75" height="126.57" as="geometry" />
        </mxCell>
        <mxCell id="YCS9mpfpworKlvHF8gT9-156" value="" style="edgeStyle=orthogonalEdgeStyle;rounded=0;orthogonalLoop=1;jettySize=auto;html=1;" edge="1" parent="1" source="YCS9mpfpworKlvHF8gT9-158" target="YCS9mpfpworKlvHF8gT9-160">
          <mxGeometry relative="1" as="geometry" />
        </mxCell>
        <mxCell id="YCS9mpfpworKlvHF8gT9-157" value="true" style="edgeLabel;html=1;align=center;verticalAlign=middle;resizable=0;points=[];" vertex="1" connectable="0" parent="YCS9mpfpworKlvHF8gT9-156">
          <mxGeometry x="-0.3327" y="3" relative="1" as="geometry">
            <mxPoint as="offset" />
          </mxGeometry>
        </mxCell>
        <mxCell id="YCS9mpfpworKlvHF8gT9-158" value="&lt;div style=&quot;color: rgb(212, 212, 212); background-color: rgb(30, 30, 30); font-family: Consolas, &amp;quot;Courier New&amp;quot;, monospace; font-size: 14px; line-height: 19px;&quot;&gt;findNumber == &lt;span style=&quot;color: #c8c8c8;&quot;&gt;arr&lt;/span&gt;[&lt;span style=&quot;color: #c8c8c8;&quot;&gt;i&lt;/span&gt;]&lt;/div&gt;" style="rhombus;whiteSpace=wrap;html=1;" vertex="1" parent="1">
          <mxGeometry x="1300" y="4116.8" width="210" height="137.66" as="geometry" />
        </mxCell>
        <mxCell id="YCS9mpfpworKlvHF8gT9-159" style="edgeStyle=orthogonalEdgeStyle;rounded=0;orthogonalLoop=1;jettySize=auto;html=1;" edge="1" parent="1" source="YCS9mpfpworKlvHF8gT9-160">
          <mxGeometry relative="1" as="geometry">
            <mxPoint x="950" y="4186" as="targetPoint" />
            <Array as="points">
              <mxPoint x="1695" y="4020" />
              <mxPoint x="950" y="4020" />
            </Array>
          </mxGeometry>
        </mxCell>
        <mxCell id="YCS9mpfpworKlvHF8gT9-160" value="count++" style="whiteSpace=wrap;html=1;" vertex="1" parent="1">
          <mxGeometry x="1635" y="4155.63" width="120" height="60" as="geometry" />
        </mxCell>
        <mxCell id="YCS9mpfpworKlvHF8gT9-161" style="edgeStyle=orthogonalEdgeStyle;rounded=0;orthogonalLoop=1;jettySize=auto;html=1;" edge="1" parent="1" source="YCS9mpfpworKlvHF8gT9-162">
          <mxGeometry relative="1" as="geometry">
            <mxPoint x="1870" y="720" as="targetPoint" />
            <Array as="points">
              <mxPoint x="2150" y="4362" />
              <mxPoint x="2150" y="700" />
              <mxPoint x="1870" y="700" />
            </Array>
          </mxGeometry>
        </mxCell>
        <mxCell id="YCS9mpfpworKlvHF8gT9-162" value="count" style="shape=parallelogram;perimeter=parallelogramPerimeter;whiteSpace=wrap;html=1;fixedSize=1;" vertex="1" parent="1">
          <mxGeometry x="1016.875" y="4332.195" width="120" height="60" as="geometry" />
        </mxCell>
        <mxCell id="YCS9mpfpworKlvHF8gT9-163" value="" style="edgeStyle=orthogonalEdgeStyle;rounded=0;orthogonalLoop=1;jettySize=auto;html=1;" edge="1" parent="1" source="YCS9mpfpworKlvHF8gT9-164" target="YCS9mpfpworKlvHF8gT9-165">
          <mxGeometry relative="1" as="geometry" />
        </mxCell>
        <mxCell id="YCS9mpfpworKlvHF8gT9-164" value="choice==8" style="rhombus;whiteSpace=wrap;html=1;" vertex="1" parent="1">
          <mxGeometry x="308.75" y="4320" width="112.5" height="110" as="geometry" />
        </mxCell>
        <mxCell id="YCS9mpfpworKlvHF8gT9-165" value="end" style="ellipse;whiteSpace=wrap;html=1;" vertex="1" parent="1">
          <mxGeometry x="325" y="4525" width="125" height="95" as="geometry" />
        </mxCell>
      </root>
    </mxGraphModel>
  </diagram>
</mxfile>
